<svg xmlns="http://www.w3.org/2000/svg" width="24" height="24" viewBox="0 0 24 24" fill="none">
  <path fill-rule="evenodd" clip-rule="evenodd" d="M8.23163 2.08036C8.23163 0.931582 9.10209 0 10.1755 0C11.2489 0 12.1194 0.931582 12.1206 2.08036V21.9196C12.1206 23.0684 11.2501 24 10.1767 24C9.10331 24 8.23285 23.0684 8.23285 21.9196V17.0341C8.18395 16.6743 7.90643 16.393 7.55678 16.393C7.17656 16.393 6.86848 16.7201 6.86359 17.127V20.2226C6.86359 21.1608 6.15328 21.9209 5.27671 21.9209C4.40014 21.9209 3.68983 21.1608 3.68983 20.2226V14.5337C3.67394 14.2223 3.43798 13.9737 3.14335 13.9737C2.83771 13.9737 2.59075 14.238 2.59075 14.5638V16.3799C2.59075 17.1283 2.02349 17.7354 1.32419 17.7354C0.624883 17.7354 0.0576172 17.1283 0.0576172 16.3799V7.61751C0.0576172 6.86911 0.623661 6.26332 1.32296 6.26332C2.02226 6.26332 2.58953 6.87041 2.58953 7.61882V8.79376C2.58953 9.12086 2.83771 9.38516 3.14213 9.38516C3.43676 9.38516 3.67272 9.13656 3.68861 8.82516V3.78128C3.68861 2.84316 4.39891 2.08297 5.27549 2.08297C6.15206 2.08297 6.86236 2.84316 6.86236 3.78128V10.441C6.86725 10.8466 7.17412 11.1751 7.55555 11.1751C7.9052 11.1751 8.18272 10.8937 8.23163 10.5339V2.08036ZM17.6104 3.61642H14.2215C13.4757 3.61642 12.8705 2.96876 12.8705 2.17064C12.8705 1.37251 13.4757 0.724854 14.2215 0.724854H17.6104C18.3562 0.724854 18.9613 1.37251 18.9613 2.17064C18.9613 2.96876 18.3562 3.61642 17.6104 3.61642ZM14.2214 20.8991H17.6104C18.3561 20.8991 18.9613 21.5467 18.9613 22.3449C18.9613 23.143 18.3561 23.7907 17.6104 23.7907H14.2214C13.4757 23.7907 12.8705 23.143 12.8705 22.3449C12.8705 21.5467 13.4757 20.8991 14.2214 20.8991ZM12.8705 7.31006C12.8705 8.19846 13.5442 8.91939 14.3743 8.91939H20.5396C21.3697 8.91939 22.0434 8.19846 22.0434 7.31006C22.0434 6.42165 21.3697 5.70072 20.5396 5.70072H14.3743C13.5442 5.70072 12.8705 6.42165 12.8705 7.31006ZM14.3743 15.833H20.5396C21.371 15.833 22.0434 16.5539 22.0434 17.4423C22.0434 18.3307 21.3697 19.0516 20.5396 19.0516H14.3743C13.5442 19.0516 12.8705 18.3307 12.8705 17.4423C12.8705 16.5539 13.5442 15.833 14.3743 15.833ZM22.4395 10.7668H14.3743C13.5442 10.7668 12.8705 11.4878 12.8705 12.3762C12.8705 13.2646 13.5442 13.9855 14.3743 13.9855H22.4395C23.2696 13.9855 23.9432 13.2646 23.9432 12.3762C23.9432 11.4878 23.2696 10.7668 22.4395 10.7668Z" fill="#7B7B7D"/>
</svg>
